<svg xmlns="http://www.w3.org/2000/svg" width="27.2" height="26.129" viewBox="0 0 27.2 26.129">
  <path id="Advertise_2" data-name="Advertise 2" d="M18.587,3a2.031,2.031,0,0,0-1.659,1.006L2.584,9.048a1.242,1.242,0,0,0-1-.607C.68,8.44,0,9.61,0,11.16s.68,2.72,1.587,2.72a1.242,1.242,0,0,0,1-.607l2.185.771-.236.553h0a2.249,2.249,0,0,0,.807,3h.073a2.248,2.248,0,0,0,.617.236l3.037,1.215a2.249,2.249,0,0,0,2.992-.816h0l.063-.109a1.6,1.6,0,0,0,.1-.218l.471-1.079L16.909,18.3a2.031,2.031,0,0,0,1.677,1.015c2.5,0,3.173-5.132,3.173-8.16S21.089,3,18.587,3ZM10.563,17.144l-.054.118h0a.444.444,0,0,1-.607.145.907.907,0,0,0-.218-.091L6.564,16.183H6.41a.453.453,0,0,1-.145-.054h0a.472.472,0,0,1-.163-.662.907.907,0,0,0,.073-.154l.317-.662,4.533,1.578Zm8.024.363c-.453-.354-1.36-2.493-1.36-6.347s.907-5.993,1.36-6.347c.453.354,1.36,2.493,1.36,6.347S19.04,17.153,18.587,17.507Z" transform="matrix(0.799, -0.602, 0.602, 0.799, -1.805, 10.7)" fill="#fff"/>
</svg>
