<svg xmlns="http://www.w3.org/2000/svg" width="191.729" height="191.729" viewBox="0 0 191.729 191.729">
  <path id="blog" d="M131.813,71.9h59.915V95.864H131.813ZM0,119.83H191.729V143.8H0Zm0,47.932H143.8v23.966H0Zm131.813-143.8h59.915V47.932H131.813ZM11.983,107.847h95.864A11.983,11.983,0,0,0,119.83,95.864V11.983A11.983,11.983,0,0,0,107.847,0H11.983A11.983,11.983,0,0,0,0,11.983V95.864A11.983,11.983,0,0,0,11.983,107.847ZM23.966,23.966h71.9V83.881L59.915,47.932,23.966,83.881Z" fill="#0278ff" opacity="0.07"/>
</svg>
