<svg xmlns="http://www.w3.org/2000/svg" width="53.677" height="53.677" viewBox="0 0 53.677 53.677">
  <g id="campus" transform="translate(-1 -1)">
    <circle id="Ellipse_71" data-name="Ellipse 71" cx="3.5" cy="3.5" r="3.5" transform="translate(24 24.677)" fill="#43bad1"/>
    <rect id="Rectangle_6012" data-name="Rectangle 6012" width="5.368" height="10.735" transform="translate(25.155 43.941)" fill="#43bad1"/>
    <path id="Path_46033" data-name="Path 46033" d="M29.628,12.63v-.895h8.946a1.789,1.789,0,0,0,1.789-1.789V2.789A1.789,1.789,0,0,0,38.574,1H27.838a1.789,1.789,0,0,0-1.789,1.789V12.63l-13.6,10.2a1.789,1.789,0,0,0-.716,1.431V52.888a1.789,1.789,0,0,0,1.789,1.789h8.052V42.152a1.789,1.789,0,0,1,1.789-1.789h8.946A1.789,1.789,0,0,1,34.1,42.152V54.677h8.052a1.789,1.789,0,0,0,1.789-1.789V24.26a1.789,1.789,0,0,0-.716-1.431ZM27.838,35A7.157,7.157,0,1,1,35,27.838,7.157,7.157,0,0,1,27.838,35ZM1,31.417V52.888a1.789,1.789,0,0,0,1.789,1.789H8.157V29.628H2.789A1.789,1.789,0,0,0,1,31.417Zm51.888-1.789H47.52V54.677h5.368a1.789,1.789,0,0,0,1.789-1.789V31.417A1.789,1.789,0,0,0,52.888,29.628Z" transform="translate(0 0)" fill="#43bad1"/>
  </g>
</svg>
