<svg xmlns="http://www.w3.org/2000/svg" width="29.125" height="21.847" viewBox="0 0 29.125 21.847">
  <path id="flight" d="M22.881,2.475c-1.183.528-3.022,1.547-5.1,2.73L7.846,3.822a3.953,3.953,0,0,0-1.667.116L4.022,4.55c-.182,0-.182.182,0,.255l8.3,3.64c-2.8,1.675-5.3,3.2-6.389,3.9a1.562,1.562,0,0,1-1.321.16l-2.173-.688a1.573,1.573,0,0,0-1.067,0L0,12.377,4.586,16.2a1.6,1.6,0,0,0,1.685.233c2.192-.979,7.962-3.637,12.257-5.876C28.066,5.5,29.122,4.623,29.122,3.822c0-1.256-3.64-2.548-6.243-1.347ZM0,22.024H29.124v1.82H0Z" transform="translate(0.001 -1.997)" fill="#7cdd88"/>
</svg>
