<svg xmlns="http://www.w3.org/2000/svg" width="19.316" height="22.288" viewBox="0 0 19.316 22.288">
  <g id="graduate" transform="translate(0)">
    <path id="Path_45958" data-name="Path 45958" d="M3.742,3.325l5.217,1.7a.372.372,0,0,1-.235.705L6.946,5.136a.371.371,0,0,0-.489.352v1.57a.371.371,0,0,0,.279.36,24.57,24.57,0,0,0,4.84.755h.087a28.218,28.218,0,0,0,4.912-.753.371.371,0,0,0,.285-.361V4.23l.6-.2.139.016V5.354A1.548,1.548,0,0,0,17.23,6.5a1.665,1.665,0,0,0,.316,1.1l-.676,2.6a.371.371,0,0,0,.159.406l.743.478a.37.37,0,0,0,.4,0l.743-.478a.371.371,0,0,0,.158-.406L18.4,7.6a1.665,1.665,0,0,0,.316-1.1,1.548,1.548,0,0,0-.371-1.146V3.735l1.232-.411a.371.371,0,0,0,0-.7l-7.8-2.6a.372.372,0,0,0-.235,0l-7.8,2.6a.37.37,0,0,0,0,.706ZM19.184,16.2a16.333,16.333,0,0,0-7.526-2.088A16.335,16.335,0,0,0,4.132,16.2,4.11,4.11,0,0,0,2,19.844V20.8a1.487,1.487,0,0,0,1.486,1.486H19.831A1.487,1.487,0,0,0,21.316,20.8v-.958a4.11,4.11,0,0,0-2.132-3.64Z" transform="translate(-2 0)" fill="#586895"/>
    <path id="Path_45959" data-name="Path 45959" d="M17.934,11.069a27.013,27.013,0,0,1-4.712.689h-.094a23.647,23.647,0,0,1-4.642-.684.371.371,0,0,0-.456.393,5.2,5.2,0,0,0,10.357-.005.371.371,0,0,0-.452-.394Z" transform="translate(-3.55 -2.843)" fill="#586895"/>
  </g>
</svg>
