<svg xmlns="http://www.w3.org/2000/svg" width="161" height="36" viewBox="0 0 161 36">
  <g id="Group_26048" data-name="Group 26048" transform="translate(-0.304 -0.082)">
    <circle id="Ellipse_9" data-name="Ellipse 9" cx="18" cy="18" r="18" transform="translate(0.304 0.082)" fill="#f4f9ff"/>
    <ellipse id="Ellipse_10" data-name="Ellipse 10" cx="17.5" cy="18" rx="17.5" ry="18" transform="translate(63.304 0.082)" fill="#f4f9ff"/>
    <circle id="Ellipse_11" data-name="Ellipse 11" cx="18" cy="18" r="18" transform="translate(125.304 0.082)" fill="#f4f9ff"/>
    <path id="Icon_awesome-facebook-f" data-name="Icon awesome-facebook-f" d="M12.109,10.967l.583-3.529H9.048V5.149c0-.965.509-1.906,2.14-1.906h1.656v-3A21.685,21.685,0,0,0,9.905,0c-3,0-4.961,1.69-4.961,4.749V7.439H1.609v3.529H4.944V19.5h4.1v-8.53Z" transform="translate(11.077 8.333)" fill="#002b64"/>
    <path id="Icon_awesome-twitter" data-name="Icon awesome-twitter" d="M16.2,7.036c.011.16.011.321.011.481A10.458,10.458,0,0,1,5.684,18.048,10.459,10.459,0,0,1,0,16.386a7.657,7.657,0,0,0,.894.046,7.412,7.412,0,0,0,4.595-1.581,3.708,3.708,0,0,1-3.461-2.567,4.667,4.667,0,0,0,.7.057,3.914,3.914,0,0,0,.974-.126A3.7,3.7,0,0,1,.733,8.583V8.537a3.727,3.727,0,0,0,1.673.47A3.707,3.707,0,0,1,1.26,4.057,10.52,10.52,0,0,0,8.892,7.93,4.178,4.178,0,0,1,8.8,7.082,3.7,3.7,0,0,1,15.206,4.55a7.287,7.287,0,0,0,2.349-.894A3.691,3.691,0,0,1,15.928,5.7a7.42,7.42,0,0,0,2.131-.573A7.956,7.956,0,0,1,16.2,7.036Z" transform="translate(71.774 7.367)" fill="#002b64"/>
    <path id="Icon_awesome-instagram" data-name="Icon awesome-instagram" d="M8.66,6.458A4.441,4.441,0,1,0,13.1,10.9,4.434,4.434,0,0,0,8.66,6.458Zm0,7.329A2.887,2.887,0,1,1,11.547,10.9,2.893,2.893,0,0,1,8.66,13.786Zm5.659-7.51A1.036,1.036,0,1,1,13.283,5.24,1.033,1.033,0,0,1,14.319,6.276ZM17.26,7.327a5.126,5.126,0,0,0-1.4-3.63,5.16,5.16,0,0,0-3.63-1.4c-1.43-.081-5.717-.081-7.147,0a5.153,5.153,0,0,0-3.63,1.4,5.143,5.143,0,0,0-1.4,3.63c-.081,1.43-.081,5.717,0,7.147a5.126,5.126,0,0,0,1.4,3.63,5.167,5.167,0,0,0,3.63,1.4c1.43.081,5.717.081,7.147,0a5.126,5.126,0,0,0,3.63-1.4,5.16,5.16,0,0,0,1.4-3.63c.081-1.43.081-5.713,0-7.143Zm-1.848,8.678a2.923,2.923,0,0,1-1.647,1.647C12.626,18.1,9.92,18,8.66,18s-3.97.1-5.106-.348a2.923,2.923,0,0,1-1.647-1.647c-.452-1.14-.348-3.846-.348-5.106s-.1-3.97.348-5.106A2.923,2.923,0,0,1,3.554,4.146C4.694,3.694,7.4,3.8,8.66,3.8s3.97-.1,5.106.348a2.923,2.923,0,0,1,1.647,1.647c.452,1.14.348,3.846.348,5.106S15.865,14.869,15.413,16.005Z" transform="translate(134.646 7.182)" fill="#002b64"/>
  </g>
</svg>
