<svg xmlns="http://www.w3.org/2000/svg" width="1536" height="1499" viewBox="0 0 1536 1499">
  <g id="Group_30881" data-name="Group 30881" transform="translate(520 415)" opacity="0.54">
    <g id="bruce-mars-FWVMhUa_wbY-unsplash_1_" data-name="bruce-mars-FWVMhUa_wbY-unsplash (1)" transform="translate(-289 207)" fill="none" stroke="#0278ff" stroke-width="1" opacity="0.45">
      <path d="M0,0H296a814,814,0,0,1,814,814v59a0,0,0,0,1,0,0H0a0,0,0,0,1,0,0V0A0,0,0,0,1,0,0Z" stroke="none"/>
      <path d="M1,.5H296A813.5,813.5,0,0,1,1109.5,814v58a.5.5,0,0,1-.5.5H1a.5.5,0,0,1-.5-.5V1A.5.5,0,0,1,1,.5Z" fill="none"/>
    </g>
    <g id="Group_30866" data-name="Group 30866" opacity="0.86">
      <rect id="Rectangle_6017" data-name="Rectangle 6017" width="673" height="673" rx="221" transform="translate(193 -265)" fill="#0278ff" opacity="0.05"/>
      <rect id="Rectangle_6015" data-name="Rectangle 6015" width="673" height="672" rx="221" transform="translate(-370 262)" fill="#0278ff" opacity="0.05"/>
      <rect id="Rectangle_6016" data-name="Rectangle 6016" width="673" height="673" rx="221" transform="translate(-215 -75)" fill="#0278ff" opacity="0.05"/>
    </g>
  </g>
</svg>
