<svg xmlns="http://www.w3.org/2000/svg" width="170" height="170" viewBox="0 0 170 170">
  <g id="Group_30884" data-name="Group 30884" transform="translate(-1027 -5488.96)">
    <rect id="Rectangle_6006" data-name="Rectangle 6006" width="170" height="170" rx="11" transform="translate(1027 5488.96)" fill="#dbeeff" opacity="0.34"/>
    <g id="school" transform="translate(1061.139 4513.853)">
      <path id="Path_45967" data-name="Path 45967" d="M47.616,1028.05l-20.489,19.9-.705.686.076-.082a3.9,3.9,0,0,1-1.34.93,3.543,3.543,0,0,1-1.539.289,3.83,3.83,0,0,1-3.559-3.668,4.732,4.732,0,0,1,.076-.77h0a3.833,3.833,0,0,1,1.225-2.065l-.082.072,3.514-3.411-1.866-1.995L2.5,1057.059V1089.5H91.152v-32.437l-20.425-19.123-1.4,1.494,3.931,3.957h0a3.658,3.658,0,0,1,.494.615h0a3.892,3.892,0,0,1,.564,1.437h0a3.566,3.566,0,0,1,.039.744,3.629,3.629,0,0,1-.353,1.341h0a3.869,3.869,0,0,1-.763,1.071,3.59,3.59,0,0,1-4.611.474,3.8,3.8,0,0,1-.616-.5l-1.488-1.5-4.053-4.085s0,0-.033,0l-1.77-1.783a.032.032,0,0,0-.033-.033h0Zm-.789,10.441a3.283,3.283,0,1,1-3.283,3.283A3.284,3.284,0,0,1,46.827,1038.491ZM17.642,1054.17l4.1,4.1v5.746H13.538v-5.746Zm29.185,0,4.1,4.1v5.746H42.723v-5.746Zm29.185,0,4.1,4.1v5.746H71.908v-5.746Zm-58.371,16.276,4.1,4.1v5.746H13.538v-5.746Zm58.371,0,4.1,4.1v5.746H71.908v-5.746Zm-34.931.969H52.573v15.6H41.081Z" transform="translate(4.034 4.75)" fill="#002b64"/>
      <path id="Path_45968" data-name="Path 45968" d="M27,1028.974a1.638,1.638,0,0,0-.988.443l-24.7,23.131a1.642,1.642,0,1,0,2.244,2.391l23.5-22.009,5.355,5.72a1.642,1.642,0,1,0,2.392-2.245l-6.471-6.913a1.641,1.641,0,0,0-1.334-.519Zm47.513,0a1.64,1.64,0,0,0-1.1.5l-5.669,5.894a1.642,1.642,0,1,0,2.36,2.277l4.546-4.726,23.523,22.022a1.642,1.642,0,1,0,2.245-2.392l-24.7-23.131a1.641,1.641,0,0,0-1.2-.443Z" transform="translate(0 6.847)" fill="#002b64"/>
      <path id="Path_45969" data-name="Path 45969" d="M33.977,1025.97a1.64,1.64,0,0,0-1.122.462L9.043,1049.563a1.642,1.642,0,1,0,2.283,2.354l22.65-22L55.806,1051.9a1.644,1.644,0,1,0,2.335-2.314l-22.978-23.132A1.641,1.641,0,0,0,33.977,1025.97Z" transform="translate(17.693 0)" fill="#002b64"/>
    </g>
  </g>
</svg>
