<svg xmlns="http://www.w3.org/2000/svg" width="170" height="170" viewBox="0 0 170 170">
  <g id="Group_30883" data-name="Group 30883" transform="translate(-1027 -5201.96)">
    <rect id="Rectangle_6004" data-name="Rectangle 6004" width="170" height="170" rx="11" transform="translate(1027 5201.96)" fill="#dbeeff" opacity="0.34"/>
    <g id="student_1_" data-name="student (1)" transform="translate(1074.355 5249.316)">
      <circle id="Ellipse_65" data-name="Ellipse 65" cx="17.811" cy="17.811" r="17.811" transform="translate(14.741)" fill="#002b64"/>
      <path id="Path_45970" data-name="Path 45970" d="M45.172,21.019H47.3a1.255,1.255,0,0,0,.391-2.447A48.189,48.189,0,0,0,32.624,16C22.418,16,13.165,19.835,7.2,23.052A13.888,13.888,0,0,0,0,35.349v3.237a5.024,5.024,0,0,0,5.019,5.019h31.37a1.255,1.255,0,0,0,1.255-1.255V41.1a7.445,7.445,0,0,1,.758-3.222,1.262,1.262,0,0,0,0-1.084,7.428,7.428,0,0,1-.758-3.222V28.548A7.538,7.538,0,0,1,45.172,21.019Z" transform="translate(0 24.153)" fill="#002b64"/>
      <path id="Path_45971" data-name="Path 45971" d="M51.046,32.341a20.089,20.089,0,0,1-.951-3.516,1.255,1.255,0,0,0-1.235-1.041H24.783a1.255,1.255,0,0,1,0-2.51H48.86A1.255,1.255,0,0,0,50.1,24.232a20.089,20.089,0,0,1,.951-3.516A1.252,1.252,0,0,0,49.879,19H21.019A5.024,5.024,0,0,0,16,24.019v5.019A4.988,4.988,0,0,0,17.734,32.8,4.988,4.988,0,0,0,16,36.567v5.019a5.024,5.024,0,0,0,5.019,5.019h28.86a1.255,1.255,0,0,0,1.167-1.717,20.089,20.089,0,0,1-.951-3.516,1.255,1.255,0,0,0-1.235-1.041H24.783a1.255,1.255,0,1,1,0-2.51H48.86A1.255,1.255,0,0,0,50.1,36.78a23.021,23.021,0,0,1,.916-3.531,1.225,1.225,0,0,0,.035-.908Z" transform="translate(24.153 28.682)" fill="#002b64"/>
    </g>
  </g>
</svg>
