<svg xmlns="http://www.w3.org/2000/svg" xmlns:xlink="http://www.w3.org/1999/xlink" width="1620" height="538" viewBox="0 0 1620 538">
  <defs>
    <clipPath id="clip-path">
      <rect id="Rectangle_5993" data-name="Rectangle 5993" width="1620" height="538" rx="5" transform="translate(150 3061)" fill="#002b64"/>
    </clipPath>
  </defs>
  <g id="Mask_Group_2" data-name="Mask Group 2" transform="translate(-150 -3061)" clip-path="url(#clip-path)">
    <g id="Group_30835" data-name="Group 30835">
      <g id="Group_30834" data-name="Group 30834">
        <circle id="Ellipse_55" data-name="Ellipse 55" cx="128" cy="128" r="128" transform="translate(45 2977)" fill="#0278ff" opacity="0.08"/>
        <circle id="Ellipse_56" data-name="Ellipse 56" cx="128" cy="128" r="128" transform="translate(15 2959)" fill="#0278ff" opacity="0.08"/>
        <circle id="Ellipse_57" data-name="Ellipse 57" cx="128" cy="128" r="128" transform="translate(-27 2936)" fill="#0278ff" opacity="0.08"/>
      </g>
      <g id="Ellipse_58" data-name="Ellipse 58" transform="translate(625 3427)" fill="none" stroke="#0278ff" stroke-width="2" opacity="0.29">
        <circle cx="144" cy="144" r="144" stroke="none"/>
        <circle cx="144" cy="144" r="143" fill="none"/>
      </g>
      <circle id="Ellipse_61" data-name="Ellipse 61" cx="144" cy="144" r="144" transform="translate(1612 3139)" fill="#002b64" opacity="0.11"/>
      <g id="Ellipse_59" data-name="Ellipse 59" transform="translate(82 3467)" fill="none" stroke="#0278ff" stroke-width="2" opacity="0.15">
        <circle cx="85" cy="85" r="85" stroke="none"/>
        <circle cx="85" cy="85" r="84" fill="none"/>
      </g>
      <g id="Polygon_1" data-name="Polygon 1" transform="translate(90.75 3271.774)" fill="none" opacity="0.21">
        <path d="M55.152,2.1a9,9,0,0,1,8.2,0L82.6,11.944q.167.086.338.164l19.683,9.052a9,9,0,0,1,5.056,6.37l4.382,21.388q.037.182.082.362l5.264,21.21a9,9,0,0,1-1.794,7.9l-13.864,16.8q-.119.144-.231.293L88.391,112.795a9,9,0,0,1-7.361,3.561L59.438,115.9q-.188,0-.377,0l-21.592.452a9,9,0,0,1-7.361-3.561L16.981,95.476q-.113-.149-.231-.293L2.886,78.387a9,9,0,0,1-1.794-7.9l5.264-21.21q.045-.18.082-.362L10.82,27.531a9,9,0,0,1,5.056-6.371L35.56,12.108q.171-.078.338-.164Z" stroke="none"/>
        <path d="M 59.24998474121094 2.108871459960938 C 57.9892463684082 2.108871459960938 56.72955322265625 2.412330627441406 55.60709381103516 2.986434936523438 L 36.35273742675781 12.83440399169922 C 36.22966003417969 12.89737701416016 36.10337066650391 12.95868682861328 35.97737121582031 13.01662445068359 L 16.29457092285156 22.06858825683594 C 13.98940277099609 23.12873077392578 12.30916595458984 25.24560546875 11.79995727539062 27.73125457763672 L 7.418319702148438 49.11937713623047 C 7.390892028808594 49.25331115722656 7.360244750976562 49.38862609863281 7.327262878417969 49.52154541015625 L 2.062812805175781 70.73106384277344 C 1.454864501953125 73.18038940429688 2.051017761230469 75.80462646484375 3.657508850097656 77.75090026855469 L 17.52117156982422 94.54674530029297 C 17.60865783691406 94.65274810791016 17.69518280029297 94.7620849609375 17.77833557128906 94.87178039550781 L 30.90587615966797 112.1904220581055 C 32.40926361083984 114.1737594604492 34.79244995117188 115.3578567504883 37.28087615966797 115.3578567504883 C 37.33672332763672 115.3578567504883 37.39266204833984 115.3572845458984 37.44872283935547 115.3561019897461 L 59.04058456420898 114.9041442871094 C 59.1801872253418 114.9012222290039 59.31996536254883 114.9012222290039 59.45926284790039 114.9041442871094 L 81.05129241943359 115.356086730957 C 83.60194396972656 115.4098968505859 86.05690002441406 114.2184066772461 87.59412384033203 112.1904220581055 L 100.7216796875 94.87173461914062 C 100.8049392700195 94.76191711425781 100.8914489746094 94.65255737304688 100.9787979125977 94.54674530029297 L 114.8424758911133 77.75086975097656 C 116.4489822387695 75.80461120605469 117.0451354980469 73.18037414550781 116.4371719360352 70.73104858398438 L 111.1726913452148 49.52142333984375 C 111.1396942138672 49.38840484619141 111.1090621948242 49.25315856933594 111.0816802978516 49.11948394775391 L 106.7000427246094 27.73123931884766 C 106.1908111572266 25.24559020996094 104.5105819702148 23.12871551513672 102.2053833007812 22.06857299804688 L 82.52261352539062 13.01662445068359 C 82.39704895019531 12.95888519287109 82.27078247070312 12.89757537841797 82.14726257324219 12.83441925048828 L 62.89289093017578 2.986434936523438 C 61.77043151855469 2.412330627441406 60.51073837280273 2.108871459960938 59.24998474121094 2.108871459960938 M 59.24999237060547 1.108879089355469 C 60.65571975708008 1.108879089355469 62.06144714355469 1.437957763671875 63.34826278686523 2.09613037109375 L 82.60263061523438 11.94411468505859 C 82.71409606933594 12.00111389160156 82.82670593261719 12.05579376220703 82.94044494628906 12.10810089111328 L 102.6232147216797 21.16005706787109 C 105.2268142700195 22.357421875 107.1045532226562 24.72312927246094 107.6796951293945 27.53054809570312 L 112.0613403320312 48.91879272460938 C 112.0861511230469 49.03994750976562 112.1134796142578 49.16056060791016 112.1432647705078 49.28059387207031 L 117.4077224731445 70.49014282226562 C 118.0947875976562 73.25814819335938 117.42919921875 76.18797302246094 115.6136932373047 78.387451171875 L 101.7500152587891 95.18331909179688 C 101.6708450317383 95.27922058105469 101.5936889648438 95.37676239013672 101.5185699462891 95.47585296630859 L 88.39104461669922 112.7945022583008 C 86.64950561523438 115.0920333862305 83.91272735595703 116.4162063598633 81.03034973144531 116.3558654785156 L 59.43833923339844 115.9039306640625 C 59.31279754638672 115.9012985229492 59.18720245361328 115.9012985229492 59.06166076660156 115.9039306640625 L 37.46964263916016 116.3558807373047 C 34.58738708496094 116.4162063598633 31.85049438476562 115.092041015625 30.10895538330078 112.7945022583008 L 16.98141479492188 95.47585296630859 C 16.90629577636719 95.37676239013672 16.82912445068359 95.27922058105469 16.74996948242188 95.18333435058594 L 2.88629150390625 78.38746643066406 C 1.070785522460938 76.18797302246094 0.40521240234375 73.25816345214844 1.092262268066406 70.49015808105469 L 6.356704711914062 49.2806396484375 C 6.386505126953125 49.16059112548828 6.413833618164062 49.03994750976562 6.438644409179688 48.91876220703125 L 10.82028961181641 27.53056335449219 C 11.39543151855469 24.72314453125 13.27315521240234 22.35743713378906 15.87675476074219 21.16007232666016 L 35.55953979492188 12.10810089111328 C 35.67327880859375 12.05579376220703 35.78590393066406 12.00112915039062 35.8973388671875 11.94412994384766 L 55.1517219543457 2.09613037109375 C 56.43853759765625 1.437957763671875 57.84426498413086 1.108879089355469 59.24999237060547 1.108879089355469 Z" stroke="none" fill="#f4f9ff"/>
      </g>
    </g>
  </g>
</svg>
