<svg id="noun_Share_896160" xmlns="http://www.w3.org/2000/svg" width="22.512" height="23.559" viewBox="0 0 22.512 23.559">
  <path id="Path_5" data-name="Path 5" d="M25.271,20.183a4.253,4.253,0,0,0-3.481,1.806L15.167,18.35a4.007,4.007,0,0,0,.314-1.571,3.914,3.914,0,0,0-.314-1.571L21.816,11.6a4.229,4.229,0,0,0,7.7-2.408,4.241,4.241,0,0,0-8.481,0,4.542,4.542,0,0,0,.262,1.466l-6.649,3.639a4.3,4.3,0,0,0-3.4-1.7,4.189,4.189,0,1,0,0,8.377,4.3,4.3,0,0,0,3.4-1.7L21.319,22.9a3.841,3.841,0,0,0-.262,1.466,4.228,4.228,0,1,0,4.214-4.188Zm0-14.136A3.141,3.141,0,1,1,22.13,9.188,3.134,3.134,0,0,1,25.271,6.047ZM11.241,19.921a3.141,3.141,0,1,1,3.141-3.141A3.117,3.117,0,0,1,11.241,19.921Zm14.031,7.591a3.142,3.142,0,1,1,3.194-3.141A3.156,3.156,0,0,1,25.271,27.512Z" transform="translate(-7 -5)" fill="#002b64"/>
</svg>
