<svg xmlns="http://www.w3.org/2000/svg" width="23.769" height="28.464" viewBox="0 0 23.769 28.464">
  <g id="noun_call_2091475" transform="matrix(0.966, -0.259, 0.259, 0.966, 0, 4.66)">
    <path id="Path_45955" data-name="Path 45955" d="M4.571,0A2.794,2.794,0,0,0,3.448.26,6.372,6.372,0,0,0,.008,5.981c.154,2.57,1.646,6.3,3.636,9.751s4.479,6.607,6.627,8.025a6.372,6.372,0,0,0,6.675-.119,2.214,2.214,0,0,0,.953-2.566A9.073,9.073,0,0,0,16.129,18a1.636,1.636,0,0,0-1.844-.473l-.827.317a3.532,3.532,0,0,1-3.889-.926,19.033,19.033,0,0,1-2.333-3.259A19.015,19.015,0,0,1,5.58,10.009,3.533,3.533,0,0,1,6.723,6.179l.688-.558a1.635,1.635,0,0,0,.512-1.834A9.077,9.077,0,0,0,6.147.717,2.143,2.143,0,0,0,4.571,0Z" transform="translate(0)" fill="#f4f9ff"/>
  </g>
</svg>
