<svg xmlns="http://www.w3.org/2000/svg" width="19.953" height="26.629" viewBox="0 0 19.953 26.629">
  <g id="noun_Compare_3133212" transform="translate(0.5 0.5)">
    <g id="Layer_2" data-name="Layer 2" transform="translate(0 0)">
      <g id="Layer_1" data-name="Layer 1">
        <path id="Path_2" data-name="Path 2" d="M8.422,25.968H2.128A2.128,2.128,0,0,1,0,23.84V9.109A2.128,2.128,0,0,1,2.128,7H8.422v.573H2.128A1.556,1.556,0,0,0,.573,9.109V23.84A1.556,1.556,0,0,0,2.128,25.4H8.422Z" transform="translate(0 -3.66)" fill="none" stroke="#002b64" stroke-width="1"/>
        <rect id="Rectangle_4" data-name="Rectangle 4" width="0.573" height="25.629" transform="translate(8.136)" fill="none" stroke="#002b64" stroke-width="1"/>
        <path id="Path_3" data-name="Path 3" d="M30.409,25.968H26V25.4h4.419a1.556,1.556,0,0,0,1.556-1.556V9.109a1.556,1.556,0,0,0-1.556-1.556H26V7h4.419a2.128,2.128,0,0,1,2.128,2.128V23.84a2.128,2.128,0,0,1-2.138,2.128Z" transform="translate(-13.593 -3.66)" fill="none" stroke="#002b64" stroke-width="1"/>
      </g>
    </g>
  </g>
</svg>
