<svg id="noun_Download_1560897" xmlns="http://www.w3.org/2000/svg" width="22.745" height="22.745" viewBox="0 0 22.745 22.745">
  <path id="Path_127" data-name="Path 127" d="M7.034,62A1.034,1.034,0,0,0,6,63.034v3.1a4.135,4.135,0,0,0,4.135,4.135H24.609a4.135,4.135,0,0,0,4.135-4.135v-3.1a1.034,1.034,0,1,0-2.068,0v3.1A2.068,2.068,0,0,1,24.609,68.2H10.135a2.068,2.068,0,0,1-2.068-2.068v-3.1A1.034,1.034,0,0,0,7.034,62Z" transform="translate(-6 -47.526)" fill="#002b64"/>
  <path id="Path_128" data-name="Path 128" d="M35.167,6a1.034,1.034,0,0,0-1.034,1.034V19.957l-2.386-2.285a1.035,1.035,0,1,0-1.432,1.494l4.135,3.957a1.034,1.034,0,0,0,1.432,0l4.135-3.957a1.035,1.035,0,1,0-1.432-1.494L36.2,19.957V7.034A1.034,1.034,0,0,0,35.167,6Z" transform="translate(-23.795 -6)" fill="#002b64"/>
</svg>
