<svg xmlns="http://www.w3.org/2000/svg" width="21.245" height="21.246" viewBox="0 0 21.245 21.246">
  <g id="noun_web_3847454" transform="translate(-2 -22)">
    <g id="Group_30822" data-name="Group 30822" transform="translate(2 22)">
      <path id="Path_45956" data-name="Path 45956" d="M23.479,17.561l.01-.025a10.511,10.511,0,0,0,0-7.827l-.01-.025a10.609,10.609,0,0,0-19.713,0l-.01.025a10.511,10.511,0,0,0,0,7.827l.01.025a10.632,10.632,0,0,0,9.857,6.684h0a10.632,10.632,0,0,0,9.857-6.684Zm-9.857,5.454a8.792,8.792,0,0,1-3.453-5.121h6.906A8.792,8.792,0,0,1,13.623,23.015ZM9.9,16.776a16.679,16.679,0,0,1,0-6.307h7.436a16.679,16.679,0,0,1,0,6.307ZM4.118,13.623a9.447,9.447,0,0,1,.549-3.153h4.1a17.646,17.646,0,0,0,0,6.307h-4.1a9.447,9.447,0,0,1-.549-3.153Zm9.5-9.393a8.792,8.792,0,0,1,3.453,5.121H10.17A8.792,8.792,0,0,1,13.623,4.23Zm4.853,6.239h4.1a9.33,9.33,0,0,1,0,6.307h-4.1A17.646,17.646,0,0,0,18.476,10.469ZM22.1,9.351H18.233A10.748,10.748,0,0,0,15.489,4.3,9.528,9.528,0,0,1,22.1,9.351ZM11.756,4.3A10.748,10.748,0,0,0,9.012,9.351H5.144A9.528,9.528,0,0,1,11.756,4.3ZM5.144,17.894H9.012a10.748,10.748,0,0,0,2.744,5.046,9.528,9.528,0,0,1-6.613-5.046ZM15.489,22.94a10.748,10.748,0,0,0,2.744-5.046H22.1a9.528,9.528,0,0,1-6.613,5.046Z" transform="translate(-3 -3)" fill="#f4f9ff"/>
    </g>
  </g>
</svg>
