<svg xmlns="http://www.w3.org/2000/svg" width="23.312" height="27.001" viewBox="0 0 23.312 27.001">
  <g id="pathway" transform="translate(0 0)">
    <path id="Path_45960" data-name="Path 45960" d="M13.553,13.572H20.3a2.671,2.671,0,0,0,.174-.964V8.75a2.893,2.893,0,0,0-1.051-2.228V4.893A2.893,2.893,0,0,0,16.533,2h-.964a2.893,2.893,0,0,0-2.893,2.893v.964H7.941a.964.964,0,0,0-.685.28l-2.5,2.5a2.893,2.893,0,0,0,0,4.089l2.5,2.5a.964.964,0,0,0,.685.28h2.893a2.893,2.893,0,0,1,2.719-1.929Z" transform="translate(-3.913 -2)" fill="#eda45b"/>
    <path id="Path_45961" data-name="Path 45961" d="M26.628,16.777l-2.5-2.5a.964.964,0,0,0-.685-.28H20.553a2.893,2.893,0,0,1-2.719,1.929h-6.75a2.671,2.671,0,0,0-.174.964V20.75A2.893,2.893,0,0,0,13.8,23.643h9.643a.964.964,0,0,0,.685-.28l2.5-2.5A2.893,2.893,0,0,0,26.628,16.777Zm-13.7,8.708V27.5a1.929,1.929,0,0,0,1.929,1.929h2.893A1.929,1.929,0,0,0,19.676,27.5V25.572H13.8A4.822,4.822,0,0,1,12.925,25.485Z" transform="translate(-4.163 -2.428)" fill="#eda45b"/>
  </g>
</svg>
