<svg xmlns="http://www.w3.org/2000/svg" width="22.729" height="27.694" viewBox="0 0 22.729 27.694">
  <path id="ranking" d="M52.753,27.694H46.187a.289.289,0,0,1-.287-.287v-6.87a1.444,1.444,0,0,1,1.444-1.444H52.7C52.721,27.878,52.656,27.44,52.753,27.694Zm8.492-14.859V27.408a.289.289,0,0,1-.287.287H53.57a.289.289,0,0,1-.287-.287V12.836a1.444,1.444,0,0,1,1.444-1.444h5.079A1.443,1.443,0,0,1,61.246,12.836Zm7.383,4.517V27.408a.289.289,0,0,1-.287.287H61.77c.1-.254.032.33.054-11.786H67.19A1.446,1.446,0,0,1,68.629,17.352ZM60,5.182a.266.266,0,0,0-.081.254l.3,1.736a.863.863,0,0,1-1.255.914L57.4,7.27a.3.3,0,0,0-.27,0l-1.563.817a.862.862,0,0,1-.914-.065.85.85,0,0,1-.341-.849l.3-1.736a.294.294,0,0,0-.081-.254l-1.26-1.233a.872.872,0,0,1-.222-.887.861.861,0,0,1,.7-.59l1.747-.249a.288.288,0,0,0,.216-.157L56.491.487A.86.86,0,0,1,58.038.481l.779,1.579a.294.294,0,0,0,.216.157l1.747.249a.864.864,0,0,1,.476,1.477Z" transform="translate(-45.9)" fill="#529bdd"/>
</svg>
