<svg xmlns="http://www.w3.org/2000/svg" width="22.071" height="23.846" viewBox="0 0 22.071 23.846">
  <g id="scholarship" transform="translate(0 0)">
    <path id="Path_45962" data-name="Path 45962" d="M6.839,26.413l4.138,2.9v3.931a.207.207,0,0,0,.207.207h3.724a.207.207,0,0,0,.207-.207V27.485a3.31,3.31,0,0,0-1.655-2.859l-2.176-1.274a1.134,1.134,0,0,0-1.622.554,1.154,1.154,0,0,0-.054.645l2.416,1.51-.439.7L8.275,24.7a.414.414,0,0,1-.182-.257L6.575,18a.869.869,0,0,0-1.241.956ZM26.138,18,24.632,24.44a.414.414,0,0,1-.182.257l-3.31,2.069-.439-.7,2.416-1.51a1.154,1.154,0,0,0-.054-.645,1.134,1.134,0,0,0-1.622-.554l-2.189,1.274A3.31,3.31,0,0,0,17.6,27.485v5.756a.207.207,0,0,0,.207.207h3.724a.207.207,0,0,0,.207-.207V29.31l4.138-2.9,1.494-7.448a.869.869,0,0,0-1.241-.956Zm-9.4-2.632a1.365,1.365,0,0,1-.633,0L10.977,14v3.724a2.069,2.069,0,0,0,2.069,2.069h6.62a2.069,2.069,0,0,0,2.069-2.069V14.05Z" transform="translate(-5.315 -9.601)" fill="#43bad1"/>
    <path id="Path_45963" data-name="Path 45963" d="M28.035,5.223l-8.76-1.845a.414.414,0,0,0-.17,0l-8.76,1.845a.414.414,0,0,0,0,.8L19.1,8.33a.455.455,0,0,0,.211,0l8.739-2.3a.414.414,0,0,0-.017-.8Z" transform="translate(-8.081 -3.369)" fill="#43bad1"/>
  </g>
</svg>
