<svg id="school_1_" data-name="school (1)" xmlns="http://www.w3.org/2000/svg" width="67.985" height="67.985" viewBox="0 0 67.985 67.985">
  <path id="Path_46034" data-name="Path 46034" d="M0,0H67.985V67.985H0Z" fill="none"/>
  <path id="Path_46035" data-name="Path 46035" d="M10.329,31.324v7.96a5.7,5.7,0,0,0,2.946,4.986L27.438,52a5.625,5.625,0,0,0,5.439,0L47.04,44.269a5.7,5.7,0,0,0,2.946-4.986v-7.96l-17.11,9.348a5.625,5.625,0,0,1-5.439,0ZM27.438,3.96,3.558,16.99a2.852,2.852,0,0,0,0,4.986l23.88,13.03a5.625,5.625,0,0,0,5.439,0L55.652,22.571V39.312a2.833,2.833,0,0,0,5.665,0V21.154a2.849,2.849,0,0,0-1.473-2.493L32.877,3.96a5.779,5.779,0,0,0-5.439,0Z" transform="translate(3.835 6.011)" fill="#eda45b"/>
</svg>
