<svg xmlns="http://www.w3.org/2000/svg" width="34.894" height="33.145" viewBox="0 0 34.894 33.145">
  <path id="star_1_" data-name="star (1)" d="M27.77,20.619a1.912,1.912,0,0,0-.556,1.692l1.551,8.582a1.886,1.886,0,0,1-.785,1.884,1.918,1.918,0,0,1-2.041.14l-7.726-4.03a1.981,1.981,0,0,0-.872-.229h-.473a1.415,1.415,0,0,0-.471.157L8.669,32.864a2.033,2.033,0,0,1-1.239.192,1.938,1.938,0,0,1-1.552-2.217l1.552-8.582a1.955,1.955,0,0,0-.556-1.708l-6.3-6.105a1.884,1.884,0,0,1-.469-1.971,1.958,1.958,0,0,1,1.551-1.308l8.67-1.258a1.938,1.938,0,0,0,1.535-1.062l3.82-7.832a1.773,1.773,0,0,1,.351-.471l.155-.122a1.15,1.15,0,0,1,.281-.227l.19-.07.3-.122h.734a1.958,1.958,0,0,1,1.535,1.045l3.871,7.8a1.94,1.94,0,0,0,1.448,1.062l8.67,1.258A1.977,1.977,0,0,1,34.8,12.473a1.894,1.894,0,0,1-.506,1.971Z" transform="translate(0 0)" fill="#6456b1"/>
</svg>
