<svg xmlns="http://www.w3.org/2000/svg" width="32.663" height="68.18" viewBox="0 0 32.663 68.18">
  <g id="student_2_" data-name="student (2)" transform="translate(-0.001)">
    <path id="Path_46036" data-name="Path 46036" d="M29.313,87.053a42.459,42.459,0,0,0-.853,9.395c0,1.616.054,3.366.163,5.2a2.875,2.875,0,0,1-1.433,2.654,6.951,6.951,0,0,0,2.123.429Z" transform="translate(-19.373 -62.029)" fill="#529bdd"/>
    <path id="Path_46037" data-name="Path 46037" d="M3.505,72.706c-.111-1.908-.167-3.738-.167-5.441,0-6.015.664-10.6,2.018-14.022a10.422,10.422,0,0,1,4.659-5.72,6.069,6.069,0,0,1,2.6-.672c.036,0,.078-.006.121-.006h3.2a31.028,31.028,0,0,0-5.505-.748,4.159,4.159,0,0,0-1.172.135c-1.82.575-6.9,4.024-8.768,14.229-1.528,8.343.883,10.777,1.814,11.387a1.735,1.735,0,0,0,.342.183S2.972,72.309,3.505,72.706Z" transform="translate(0 -32.846)" fill="#529bdd"/>
    <path id="Path_46038" data-name="Path 46038" d="M16.074,78.215c.045,0,.091,0,.138,0a2.3,2.3,0,0,0,2.161-2.43c-.112-1.913-.164-3.654-.163-5.238-.01-6.963,1-10.873,2-12.914v4.646a22.7,22.7,0,0,0,3.21-11.3c0-.145,0-.235,0-.283h-.985c-.038,0-.075,0-.113.006a5.476,5.476,0,0,0-2.354.613c-1.547.767-3.214,2.444-4.38,5.416s-1.973,7.3-1.977,13.811c0,1.683.054,3.514.172,5.507A2.3,2.3,0,0,0,16.074,78.215Z" transform="translate(-9.696 -36.124)" fill="#529bdd"/>
    <path id="Path_46039" data-name="Path 46039" d="M52.369,15.193A5.477,5.477,0,0,0,50,14.579c-.034,0-.067-.005-.1-.005h-8.4c0,.068,0,.162,0,.283a23.914,23.914,0,0,1-4.935,14.287V64.626a3.554,3.554,0,0,0,7.108,0V38.677h1.332V64.626a3.554,3.554,0,0,0,7.108,0V21.52a12.475,12.475,0,0,1,.511,1.217c.81,2.246,1.492,5.931,1.489,11.682,0,1.585-.051,3.326-.162,5.239a2.3,2.3,0,0,0,2.163,2.43c.045,0,.09,0,.135,0a2.3,2.3,0,0,0,2.294-2.166c.115-1.994.169-3.824.169-5.506-.012-8.676-1.4-13.478-3.287-16.366A8.111,8.111,0,0,0,52.369,15.193Zm-6.963-2.344a6.434,6.434,0,1,0-1.055.087A6.468,6.468,0,0,0,45.406,12.849Z" transform="translate(-26.061 0)" fill="#529bdd"/>
  </g>
</svg>
