<svg xmlns="http://www.w3.org/2000/svg" xmlns:xlink="http://www.w3.org/1999/xlink" width="1636.237" height="573.762" viewBox="0 0 1636.237 573.762">
  <defs>
    <clipPath id="clip-path">
      <path id="Path_45974" data-name="Path 45974" d="M1,306H13.522V686.216H1Zm0,0" transform="translate(-1 -306)" fill="#f4f9ff"/>
    </clipPath>
    <clipPath id="clip-path-2">
      <path id="Path_45976" data-name="Path 45976" d="M518,611.047H681.925V837.529H518Zm0,0" transform="translate(-518 -611.047)" fill="#f4f9ff"/>
    </clipPath>
    <clipPath id="clip-path-3">
      <path id="Path_45978" data-name="Path 45978" d="M775,611.047H939.744V837.529H775Zm0,0" transform="translate(-775 -611.047)" fill="#f4f9ff"/>
    </clipPath>
    <clipPath id="clip-path-4">
      <path id="Path_45980" data-name="Path 45980" d="M1032,611.047h164.836V837.529H1032Zm0,0" transform="translate(-1032 -611.047)" fill="#f4f9ff"/>
    </clipPath>
    <clipPath id="clip-path-5">
      <path id="Path_45982" data-name="Path 45982" d="M1290,611.047h163.925V837.529H1290Zm0,0" transform="translate(-1290 -611.047)" fill="#f4f9ff"/>
    </clipPath>
    <clipPath id="clip-path-6">
      <path id="Path_45986" data-name="Path 45986" d="M918,637h174.5V833.938H918Zm0,0" transform="translate(-918 -637)" fill="#f4f9ff"/>
    </clipPath>
    <clipPath id="clip-path-7">
      <path id="Path_45988" data-name="Path 45988" d="M1175.84,637h174.729V833.938H1175.84Zm0,0" transform="translate(-1175.84 -637)" fill="#f4f9ff"/>
    </clipPath>
    <clipPath id="clip-path-8">
      <path id="Path_45990" data-name="Path 45990" d="M46,612.008H209.925V837.4H46Zm0,0" transform="translate(-46 -612.008)" fill="#f4f9ff"/>
    </clipPath>
    <clipPath id="clip-path-9">
      <path id="Path_45992" data-name="Path 45992" d="M105,607.211H297.385V838.06H105Zm0,0" transform="translate(-105 -607.211)" fill="#f4f9ff"/>
    </clipPath>
    <clipPath id="clip-path-10">
      <path id="Path_46013" data-name="Path 46013" d="M89,750.141h90.629v68.142H89Zm0,0" transform="translate(-89 -750.141)" fill="#f4f9ff"/>
    </clipPath>
    <clipPath id="clip-path-11">
      <path id="Path_46015" data-name="Path 46015" d="M416.105,487.3H678.184V854.652H416.105Zm0,0" transform="translate(-416.105 -487.301)" fill="#f4f9ff"/>
    </clipPath>
    <clipPath id="clip-path-12">
      <path id="Path_46017" data-name="Path 46017" d="M687.578,479H925.635V855.8H687.578Zm0,0" transform="translate(-687.578 -479)" fill="#f4f9ff"/>
    </clipPath>
    <clipPath id="clip-path-13">
      <path id="Path_46019" data-name="Path 46019" d="M936.027,483.465h260.986V855.183H936.027Zm0,0" transform="translate(-936.027 -483.465)" fill="#f4f9ff"/>
    </clipPath>
    <clipPath id="clip-path-14">
      <path id="Path_46021" data-name="Path 46021" d="M1204.62,472h266.071V856.769H1204.62Zm0,0" transform="translate(-1204.62 -472)" fill="#f4f9ff"/>
    </clipPath>
    <clipPath id="clip-path-15">
      <path id="Path_46023" data-name="Path 46023" d="M289,383H460.992V869.084H289Zm0,0" transform="translate(-289 -383)" fill="#f4f9ff"/>
    </clipPath>
  </defs>
  <g id="Untitled_design_11_" data-name="Untitled design (11)" transform="translate(-1 -306)" opacity="0.01">
    <g id="Group_30845" data-name="Group 30845" transform="translate(1 306)" clip-path="url(#clip-path)">
      <path id="Path_45973" data-name="Path 45973" d="M12.687,685.75H1.7V306H12.687V685.75" transform="translate(-0.903 -306.001)" fill="#f4f9ff"/>
    </g>
    <g id="Group_30846" data-name="Group 30846" transform="translate(589.538 653.256)" clip-path="url(#clip-path-2)">
      <path id="Path_45975" data-name="Path 45975" d="M681.708,831.355l-1.369-5.208a4.118,4.118,0,0,0-2.326-2.655c-4.985-20.036-17.8-71.575-21.865-87.93a12.27,12.27,0,0,0,6.861-4.794c7.075-11.165.956-30.322,2.1-45.263,2.58-33.631,16.849-72.732,14.141-73.478-11.82-3.256-21.211,58.594-22.1,70.685s-2.655,39.07-15.025,40-68.934-1.64-79.536-1.859c-16.453-.341-26.374,11.642-26.374,15.363,0,3.513,5.79-.239,13.875-3.8-2.491,8.444-9.427,31.371-15.92,52.787-3.472,11.463-6.826,22.492-9.3,30.655-.895,2.948-1.672,5.505-2.3,7.586a4.209,4.209,0,0,0-2.762,2.717l-1.5,5.181c-.693,2.379,1.08,4.994,3.971,5.83s5.785-.409,6.48-2.792l1.507-5.176a4.146,4.146,0,0,0-.663-3.513c2.619-8.617,7.8-25.662,13.033-42.946,3.732-12.3,7.484-24.711,10.366-34.293,1.445-4.786,2.667-8.863,3.562-11.869.448-1.5.813-2.735,1.08-3.655a.035.035,0,0,1,.009-.023,113.969,113.969,0,0,1,12.579-.947c4.728-.178,10.313-.276,16.254-.306,11.112.924,21.877,2.112,27.6,2.512,8.524.6,23.381,3.619,34.791,2.739,2.148,8.622,6.991,28.112,11.784,47.371,3.962,15.92,7.866,31.648,10.161,40.857a4.191,4.191,0,0,0-1.005,3.779l1.369,5.211c.627,2.4,3.495,3.727,6.4,2.967s4.749-3.331,4.122-5.732" transform="translate(-517.978 -610.929)" fill="#f4f9ff"/>
    </g>
    <g id="Group_30847" data-name="Group 30847" transform="translate(882.099 653.256)" clip-path="url(#clip-path-3)">
      <path id="Path_45977" data-name="Path 45977" d="M939.274,831.359l-1.371-5.213a4.118,4.118,0,0,0-2.326-2.655c-4.98-20.036-17.8-71.575-21.865-87.93a12.29,12.29,0,0,0,6.867-4.794c7.07-11.165.952-30.322,2.1-45.263,2.579-33.631,16.844-72.732,14.141-73.478-11.815-3.256-21.207,58.594-22.091,70.685s-2.65,39.07-15.021,40-68.939-1.64-79.539-1.859c-16.453-.341-26.374,11.642-26.374,15.363,0,3.513,5.79-.239,13.873-3.8-2.5,8.444-9.431,31.371-15.924,52.792-3.469,11.459-6.817,22.487-9.3,30.651-.894,2.948-1.668,5.505-2.3,7.586a4.2,4.2,0,0,0-2.752,2.717l-1.508,5.176c-.693,2.384,1.086,5,3.967,5.834s5.79-.409,6.483-2.792l1.5-5.176a4.1,4.1,0,0,0-.662-3.513c2.619-8.617,7.8-25.662,13.038-42.946,3.727-12.3,7.485-24.711,10.366-34.293,1.445-4.786,2.664-8.863,3.562-11.869.444-1.5.809-2.735,1.076-3.655a.077.077,0,0,0,.009-.023,114,114,0,0,1,12.58-.947c4.731-.178,10.32-.276,16.275-.306,11.1.924,21.86,2.112,27.573,2.512,8.525.6,23.381,3.619,34.792,2.739,2.148,8.622,6.994,28.112,11.783,47.371,3.963,15.925,7.871,31.648,10.161,40.857a4.228,4.228,0,0,0-1.005,3.775l1.374,5.216c.627,2.4,3.491,3.732,6.4,2.971s4.753-3.335,4.127-5.732" transform="translate(-774.899 -610.929)" fill="#f4f9ff"/>
    </g>
    <g id="Group_30848" data-name="Group 30848" transform="translate(1174.66 653.256)" clip-path="url(#clip-path-4)">
      <path id="Path_45979" data-name="Path 45979" d="M1195.97,831.359l-1.377-5.213a4.1,4.1,0,0,0-2.322-2.655c-4.986-20.036-17.793-71.575-21.868-87.93a12.242,12.242,0,0,0,6.864-4.794c7.069-11.165.956-30.322,2.095-45.263,2.584-33.631,16.848-72.732,14.15-73.478-11.816-3.256-21.208,58.594-22.1,70.685s-2.652,39.07-15.027,40-68.939-1.64-79.538-1.859c-16.449-.341-26.376,11.642-26.376,15.363,0,3.513,5.794-.239,13.877-3.8-2.482,8.449-9.414,31.376-15.926,52.787-3.472,11.463-6.819,22.492-9.3,30.655-.888,2.948-1.662,5.505-2.3,7.586a4.19,4.19,0,0,0-2.755,2.717l-1.5,5.176c-.706,2.384,1.081,5,3.961,5.834s5.794-.409,6.489-2.792l1.491-5.176a4.109,4.109,0,0,0-.649-3.513c2.618-8.613,7.8-25.658,13.023-42.946,3.734-12.3,7.49-24.711,10.382-34.293,1.434-4.786,2.652-8.863,3.552-11.869.444-1.5.808-2.735,1.081-3.651,0-.014,0-.023.011-.027a113.819,113.819,0,0,1,12.568-.947c4.747-.178,10.325-.276,16.279-.306,11.1.924,21.868,2.112,27.583,2.512,8.526.6,23.37,3.619,34.788,2.739,2.152,8.622,6.99,28.112,11.782,47.371,3.95,15.925,7.866,31.648,10.154,40.857a4.17,4.17,0,0,0-.99,3.775l1.366,5.216c.615,2.4,3.495,3.732,6.4,2.971s4.747-3.335,4.132-5.732" transform="translate(-1031.943 -610.929)" fill="#f4f9ff"/>
    </g>
    <g id="Group_30849" data-name="Group 30849" transform="translate(1468.36 653.256)" clip-path="url(#clip-path-5)">
      <path id="Path_45981" data-name="Path 45981" d="M1453.76,831.359l-1.377-5.213a4.173,4.173,0,0,0-2.311-2.655c-5-20.036-17.8-71.575-21.879-87.93a12.309,12.309,0,0,0,6.876-4.794c7.058-11.165.945-30.322,2.095-45.263,2.573-33.631,16.848-72.732,14.138-73.478-11.828-3.256-21.219,58.594-22.107,70.685s-2.641,39.07-15.015,40-68.928-1.64-79.538-1.859c-16.438-.341-26.365,11.642-26.365,15.363,0,3.513,5.783-.239,13.877-3.8-2.5,8.444-9.437,31.371-15.926,52.787-3.472,11.463-6.819,22.492-9.3,30.655-.9,2.948-1.673,5.505-2.3,7.586a4.183,4.183,0,0,0-2.766,2.717l-1.5,5.176c-.694,2.384,1.082,5,3.961,5.834s5.783-.409,6.489-2.792l1.5-5.176a4.192,4.192,0,0,0-.66-3.513c2.63-8.613,7.8-25.658,13.023-42.946,3.734-12.3,7.491-24.715,10.382-34.293,1.446-4.786,2.652-8.863,3.54-11.869.455-1.5.831-2.735,1.093-3.655V732.9a114.114,114.114,0,0,1,12.59-.947c4.724-.178,10.314-.276,16.267-.306,11.11.924,21.868,2.112,27.583,2.512,8.526.6,23.382,3.619,34.8,2.739,2.129,8.622,6.978,28.112,11.771,47.371,3.961,15.92,7.866,31.648,10.154,40.857a4.235,4.235,0,0,0-.99,3.775l1.366,5.216c.626,2.4,3.495,3.732,6.4,2.971s4.747-3.335,4.132-5.732" transform="translate(-1289.971 -610.929)" fill="#f4f9ff"/>
    </g>
    <path id="Path_45983" data-name="Path 45983" d="M576.745,637.523H402.48V649.4h11.145v29.558h5.967l2.392,154.935h10.143l2.4-154.935H544.212L546.6,833.889h10.147l2.393-154.935H565.6V649.4h11.148V637.523" transform="translate(55.553 45.873)" fill="#f4f9ff"/>
    <path id="Path_45984" data-name="Path 45984" d="M835.58,637.523H661.316V649.4h11.148v29.558h5.972l2.388,154.935h10.147l2.388-154.935H803.048l2.393,154.935h10.147l2.388-154.935h6.46V649.4H835.58V637.523" transform="translate(91.368 45.873)" fill="#f4f9ff"/>
    <g id="Group_30850" data-name="Group 30850" transform="translate(1044.886 682.801)" clip-path="url(#clip-path-6)">
      <path id="Path_45985" data-name="Path 45985" d="M1092.413,637.523H918.141V649.4h11.148v29.558h5.972l2.387,154.935H947.8l2.388-154.935h109.695l2.379,154.935h10.154l2.391-154.935h6.455V649.4h11.156V637.523" transform="translate(-917.981 -636.928)" fill="#f4f9ff"/>
    </g>
    <g id="Group_30851" data-name="Group 30851" transform="translate(1338.403 682.801)" clip-path="url(#clip-path-7)">
      <path id="Path_45987" data-name="Path 45987" d="M1350.23,637.523H1175.98V649.4h11.133v29.558h5.976l2.391,154.935h10.143l2.4-154.935h109.682l2.4,154.935h10.143l2.391-154.935h6.455V649.4h11.133V637.523" transform="translate(-1175.821 -636.928)" fill="#f4f9ff"/>
    </g>
    <g id="Group_30852" data-name="Group 30852" transform="translate(52.227 654.35)" clip-path="url(#clip-path-8)">
      <path id="Path_45989" data-name="Path 45989" d="M46.9,831.26l1.365-5.185a4.1,4.1,0,0,1,2.308-2.646c4.958-19.952,17.72-71.246,21.767-87.526a12.232,12.232,0,0,1-6.835-4.776c-7.035-11.113-.947-30.18-2.09-45.054-2.566-33.475-16.769-72.4-14.074-73.145,11.766-3.237,21.113,58.328,21.994,70.37s2.637,38.888,14.954,39.812,68.623-1.631,79.174-1.854c16.373-.338,26.254,11.6,26.254,15.293,0,3.5-5.768-.231-13.816-3.779,2.482,8.4,9.382,31.224,15.853,52.547,3.455,11.405,6.789,22.389,9.257,30.513.895,2.935,1.663,5.479,2.29,7.551a4.19,4.19,0,0,1,2.748,2.708l1.5,5.15c.689,2.373-1.081,4.971-3.954,5.807s-5.759-.409-6.448-2.779l-1.5-5.15a4.14,4.14,0,0,1,.658-3.5c-2.606-8.573-7.76-25.537-12.972-42.747-3.713-12.245-7.448-24.6-10.316-34.137-1.441-4.758-2.659-8.822-3.548-11.811-.445-1.493-.806-2.722-1.072-3.637,0-.009,0-.018-.009-.027a112.265,112.265,0,0,0-12.527-.943c-4.7-.173-10.258-.271-16.177-.3-11.058.92-21.775,2.1-27.467,2.5-8.489.591-23.279,3.6-34.636,2.725-2.134,8.582-6.964,27.983-11.722,47.149-3.949,15.848-7.835,31.5-10.121,40.671a4.18,4.18,0,0,1,1,3.758l-1.365,5.193c-.622,2.388-3.473,3.713-6.368,2.958s-4.731-3.317-4.1-5.706" transform="translate(-45.892 -611.898)" fill="#f4f9ff"/>
    </g>
    <g id="Group_30853" data-name="Group 30853" transform="translate(119.391 648.89)" clip-path="url(#clip-path-9)">
      <path id="Path_45991" data-name="Path 45991" d="M297.089,607.211H105.246v13.38h12.273V763.354h3.718v74.728h14.5V763.354h130.2v74.728h14.5V763.354h4.388V620.591h12.274v-13.38" transform="translate(-104.966 -607.211)" fill="#f4f9ff"/>
    </g>
    <path id="Path_45993" data-name="Path 45993" d="M186.25,608.514H122.008v-10.3H186.25v10.3" transform="translate(16.744 40.433)" fill="#f4f9ff"/>
    <path id="Path_45994" data-name="Path 45994" d="M266.741,607.455H210.383v-1.588h56.358v1.588" transform="translate(28.972 41.493)" fill="#f4f9ff"/>
    <path id="Path_45995" data-name="Path 45995" d="M270.2,606.185H213.84v-1.591H270.2v1.591" transform="translate(29.451 41.317)" fill="#f4f9ff"/>
    <path id="Path_45996" data-name="Path 45996" d="M264.886,604.839H208.523v-1.593h56.363v1.593" transform="translate(28.715 41.13)" fill="#f4f9ff"/>
    <path id="Path_45997" data-name="Path 45997" d="M268.472,603.456H212.109v-1.6h56.363v1.6" transform="translate(29.211 40.938)" fill="#f4f9ff"/>
    <path id="Path_45998" data-name="Path 45998" d="M266.78,602.1H210.422v-1.6H266.78v1.6" transform="translate(28.978 40.751)" fill="#f4f9ff"/>
    <path id="Path_45999" data-name="Path 45999" d="M273.7,600.728H217.336v-1.591H273.7v1.591" transform="translate(29.935 40.562)" fill="#f4f9ff"/>
    <path id="Path_46000" data-name="Path 46000" d="M268.472,599.4H212.109v-1.6h56.363v1.6" transform="translate(29.211 40.377)" fill="#f4f9ff"/>
    <path id="Path_46001" data-name="Path 46001" d="M266.7,598.03H210.34v-1.6H266.7v1.6" transform="translate(28.966 40.188)" fill="#f4f9ff"/>
    <path id="Path_46002" data-name="Path 46002" d="M267.2,596.771H210.84V595.18H267.2v1.591" transform="translate(29.036 40.014)" fill="#f4f9ff"/>
    <path id="Path_46003" data-name="Path 46003" d="M270.7,595.4H214.34v-1.591H270.7V595.4" transform="translate(29.52 39.824)" fill="#f4f9ff"/>
    <path id="Path_46004" data-name="Path 46004" d="M262.132,594.03H205.77v-1.6h56.362v1.6" transform="translate(28.334 39.634)" fill="#f4f9ff"/>
    <path id="Path_46005" data-name="Path 46005" d="M267.617,592.659H211.254v-1.6h56.363v1.6" transform="translate(29.093 39.444)" fill="#f4f9ff"/>
    <path id="Path_46006" data-name="Path 46006" d="M531.592,605.12s-13.226-1-25.507-1.49-34.942.494-34.942.494l-4.255,38.931H546.23s-4.251-10.632-9.445-10.134a21.736,21.736,0,0,0-8.974,2.979,23.377,23.377,0,0,0,3.3-11.913c0-6.954.476-18.867.476-18.867" transform="translate(64.465 41.164)" fill="#f4f9ff"/>
    <path id="Path_46007" data-name="Path 46007" d="M813.914,638.632H724.578V633.6h89.336v5.034" transform="translate(100.122 45.33)" fill="#f4f9ff"/>
    <path id="Path_46008" data-name="Path 46008" d="M1053.534,604.424,1041.149,632.2s-3.005,4.723-3.256,4.651,1.571-5.42,1.571-5.42l12.363-27.766,1.708.76" transform="translate(143.472 41.188)" fill="#f4f9ff"/>
    <path id="Path_46009" data-name="Path 46009" d="M768.563,622.975,761.376,593.5s-.231-5.638.107-5.764,2.347,5.164,2.347,5.164l7.191,29.477-2.459.6" transform="translate(105.203 38.983)" fill="#f4f9ff"/>
    <path id="Path_46010" data-name="Path 46010" d="M1055.732,638.413H985.293V633.09h70.439v5.323" transform="translate(136.197 45.26)" fill="#f4f9ff"/>
    <path id="Path_46011" data-name="Path 46011" d="M1340.265,637.043l-75.315-24.026,1.947-6.087,75.3,24.025-1.935,6.088" transform="translate(174.893 41.64)" fill="#f4f9ff"/>
    <g id="Group_30854" data-name="Group 30854" transform="translate(101.177 811.597)" clip-path="url(#clip-path-10)">
      <path id="Path_46012" data-name="Path 46012" d="M177.619,791.618c-1.752-2.095-.351-18.165-.351-19.562,0-.933-.792-1.708-3.4-2.437-.115-.346-.253-.707-.4-1.093a23.466,23.466,0,0,0-13.212-14.217,42.422,42.422,0,0,0-17.52-3.971c-.578-.014-1.152-.023-1.726-.023a113.251,113.251,0,0,0-18.188,1.8c-5.518.894-10.467,1.747-14.625,1.743-.361,0-.716,0-1.059-.023h0l-.4,0a8.044,8.044,0,0,0-4.283,1.126,8.231,8.231,0,0,0-3.4,4.619,17.253,17.253,0,0,0-.725,5.27c0,.93.053,1.805.129,2.61-.213.023-.4.044-.489.063-2.094.351-2.793,8.382-2.094,13.976s-4.193,14.318-5.936,18.16,0,6.986-.7,12.225,10.828,5.242,19.913,6.287c0,0,54.143.294,63.224-.058s4.193-10.071,5.937-14.608S179.363,793.716,177.619,791.618Zm-9.089-23.057c-6.982-1.045-15.016-.347-25.849-2.446-8.556-1.654-30.2-.035-39.936.886-.063-.676-.107-1.41-.1-2.157a10.889,10.889,0,0,1,.933-4.945,3.222,3.222,0,0,1,1.143-1.272,3.708,3.708,0,0,1,2.019-.488l.231,0,0,0c.4.009.814.014,1.227.014,4.722,0,9.823-.912,15.31-1.787a109.361,109.361,0,0,1,17.5-1.744c.538,0,1.076,0,1.614.023a37.951,37.951,0,0,1,15.75,3.539,23.122,23.122,0,0,1,7.786,5.8,20.651,20.651,0,0,1,2.676,4.625c-.106-.018-.2-.036-.311-.053" transform="translate(-88.982 -750.117)" fill="#f4f9ff"/>
    </g>
    <g id="Group_30855" data-name="Group 30855" transform="translate(473.543 512.388)" clip-path="url(#clip-path-11)">
      <path id="Path_46014" data-name="Path 46014" d="M677.292,691.652c-.432-1.721.525-17,.662-20.145s-5.415-35.9-6.674-49.132-3.024-27.6-9.32-46.246-15.244-22.051-17.134-23.185a2.986,2.986,0,0,0-3.527.506c-5.038-3.152-8.694-9.2-8.694-9.2a26.213,26.213,0,0,1,1.513-4.78c11.587-17.516,11.587-26.209,6.928-39.309s-22.555-14.488-34.013-10.712-9.953,7.185-10.206,7.31a29.046,29.046,0,0,0-6.55,18.139c0,1.89,1.005,3.406.875,4.665s-3.019,4.659-4.407,6.172c-2.014,2.646-2.641,3.651-2.014,4.659s3.526,2.143,3.526,2.143.254,2.019-1,2.771,1.382,3.277,1.382,3.277-1.636,2.9,0,2.77,1.135,1.766,1.01,3.655c-.5,3.779,1.383,6.172,4.029,6.172s12.473-2.144,12.473-1.636,1.388,6.425,3.406,9.444a59.114,59.114,0,0,1,4.154,8.316s-5.58,7.187-6.865,8.329.574,1.862.574,1.862c-.863.711-13.025,19.175-17.747,24.32s-14.737,16.319-14.88,16.319c-9.733-2.147-36.921-1.146-38.064-1.289s-1.428-1.005-4.439-2.864A15.954,15.954,0,0,0,527,611.979a4.4,4.4,0,0,0-4.29-.285c-4.149-1.717-4.723-.285-4.87-.285a4.4,4.4,0,0,0-4,1.859c-.858-.142-4.154.863-4.723,2.29s-2.722,3.294-1.432,3.864,3.291-1.573,3.291-1.573a4.386,4.386,0,0,1,0,2.863c-.574,1.29-.574,2.286.858,2.433a1.682,1.682,0,0,0,1.859-1.29c1.431-.285,2.721-2.864,2.721-2.864a20.247,20.247,0,0,1,2.57,1.574c5.869,5.728,12.025,6.159,15.461,7.155s3.286,2.433,3.144,3.433,1.579,3.865,2.575,4.01.715-1.431,1.146-2.863a10.861,10.861,0,0,0,.289-3.291s11.731,3.291,17.6,3.865,14.884,2.574,16.6,2.574,8.3-2.432,10.161-5.007c3.291-4.864,16.884-14.025,16.884-14.025.431,9.445,10.73,14.309,10.73,14.309a6.874,6.874,0,0,1-1,4.153,116.809,116.809,0,0,0-9.872,25.895c-2.863,12.023-11.734,29.05-11.734,29.05s-7.583,2.006-13.879,4.007-29.619,7.728-34.058,7.871c-8.582.432-14.594,6.581-16.453,9.73s-3.579,11.587-5.153,13.451-10.73,14.309-17.6,23.038-24.186,24.608-29.336,26.9c-11.445,4.723-23.608,11.451-25.324,12.167s0,1.862,0,1.862-6.154,1.143-8.3,1-13.736-4.722-16.168-5.149-5.3,4.437-5.3,4.437-3.865,3-2.428,5.292c3.286,5.58,19.6,18.459,22.607,19.747s12.3,3.149,12.3,3.149l-3.006,2.29S426.4,815.031,423.68,815.6s-4.144,5.15-4.144,5.15-4.012,4.148-1.864,8.155c5.585,10.019,20.321,13.593,30.335,17.6s24.9,7.3,28.193,8.013a2.456,2.456,0,0,0,3.291-2.428s2.142,1.285,2.574,0,.716-1.721,4.007-10.019,23.323-32.91,39.5-50.942a114.17,114.17,0,0,0,22.319-37.779l12.877-8.724s47.793-3.006,57.385-3.433,25.018,4.234,38.94-4.776c14.813-9.587,17.472-42.04,17.472-42.04S677.723,693.363,677.292,691.652ZM621.868,666.5c-1.147,2.433-8.3,17.027-8.729,19.6,0,.142-7.582.423-9.872,1.285,0,.289-.289-1,1.143-2.858s9.156-13.452,11.446-17.316,6.3-13.163,6.3-13.163.858,10.014-.285,12.447" transform="translate(-416.031 -487.257)" fill="#f4f9ff"/>
    </g>
    <g id="Group_30856" data-name="Group 30856" transform="translate(782.58 502.938)" clip-path="url(#clip-path-12)">
      <path id="Path_46016" data-name="Path 46016" d="M918.475,673.879c4.526-.618-.974-10.059-.974-10.192,6.724,2.5-.262-27.939-5.14-37.3s-7.773-27.276-17.392-48.892S869.8,551.411,869.8,551.411c.791-.921-3.7-6.163-5.025-7.614s-8.093-.351-8.227-.351c5.4-4.22,6.662-12.331,8.378-15.492,6.194-11.068,7.115-25.036,2.37-36.241s-10.677-7.119-10.805-7.382c-16.872-8.831-26.361-2.9-26.361-2.9-13.838-.658-8.96,5.141-9.227,5.141-3.157,1.054-2.5,5.27-2.766,5.27-6.061,6.723-4.477,7.911-4.477,8.039a12.163,12.163,0,0,1,2.765-3.423,13.49,13.49,0,0,0-.791,2.636c.129-.791,1.979-2.37,1.979-2.37l.134,1.841a78.789,78.789,0,0,0-3.825,7.511c-.529,1.321,1.187,3.824.925,5.011s-2.9,2.633-3.958,4.082a63.088,63.088,0,0,1-5.141,5.141,2.519,2.519,0,0,0,.529,3.824,18.327,18.327,0,0,1,3.162,2.37,3.128,3.128,0,0,0-1.988.672,1.454,1.454,0,0,0,.035,1.863c.444.4.7.431.765.369-1.45,1.054-.053,2.655.663,2.895-1.392.1-1.45,2.5-.4,2.5s.529,1.717.529,1.717c-8.307,8.039-3.762,15.723-2.638,16.471,1.735,1.151,6.982-.921,9.352-1.712s7.777-.658,7.777-.658a5.587,5.587,0,0,1,.529,3.557,6.735,6.735,0,0,0,2.638,6.194c1.841,1.187,5.664,7.381,5.664,7.381-1.4,4.5-6.039,8.512-5.9,10.8s3.291,9.3,3.291,9.3-.142,7.155-.431,7.155c-6.012,4.722-17.169,17.6-21.033,20.317s-.716,4.581-.716,4.581-4.292,3.721-4.865,4.148,1.143,2.433,1.143,2.433-1.29.721-1.428.427c-4.437-1.428-11.881-.285-12.019-.427-.427-2.722-4.154-3.433-5.444-3.291s-1.858-.574-3.57-.858-4.154,1.428-4.3,1.428c-5.011.289-5.438,3.442-5.438,3.442s-2.722.427-3.291,2.717a23.915,23.915,0,0,0-.142,8.44,41.6,41.6,0,0,0,2.286,6.012c-4.29,2.143-14.589,1.574-16.026,2.721s-7.3,5.008-8.44,6.151-.142,4.575-.142,4.575c-1.717,2.864,3.864,5.3,4.864,5.155a13.106,13.106,0,0,0,3.006-1.29s1.717,1.29,2.864,1.005,3.717-4.3,3.717-4.3l3.291.142,4.722,4.154-.574,1.859a7.631,7.631,0,0,0-4.722,3.294c-1,1.57,1.147,4.576,2,3.571,1.437-1.574,5.869-.854,6.443-2s5.291-7.3,5.438-8.582,3.193-4.581,3.336-5.438c.285-2.57,11.976-2.148,11.976-2.148s7.172,2.753,9.32,2.61,7.138-2.61,8.849-4.616,12.309-5.438,12.309-5.291c2.006,1.573,7.3-2.717,7.444-2.864,1.285.716,10.157.432,10.157.574s7.728,24.755,6.87,26.756c-2.575,7.728,3.722,7.586,3.722,7.586s-.147,2.143-.289,1.859c-31.052,3.721-87.143,16.742-95.156,17.885s-19.748,6.87-23.038,11.881-2.864,19.028-1.29,22.746,8.871,17.461,8.871,17.319c-5.292,14.453-10.3,52.227-12.3,57.662a14.888,14.888,0,0,0-.574,9.445s-3.717,5.3-4.864,6.728a2.206,2.206,0,0,0-.142,2.575c-2.29.288-4.581,3.575-4.865,3.437-3.005-.574-4.722,3.149-4.864,3-3.149.574-7.582,4.148-8.3,4.58s-6.292.574-10.583,1.005-4.437,5.146-4.722,5.146c-.721-.138-2.006,2.725-.289,4.01,4.153,3.149,17.89,9.587,25.613,8.3,7.155-1.29,21.464-2.575,21.464-2.575l-.431,2.575h8.16a78.978,78.978,0,0,0,10.446-1.29s2.148,1.29,13.451,1.29a63.554,63.554,0,0,0,21.607-4.29l3.144,2.574s13.451-.431,14.741-.574,2.717-1.285,3.148-3.721-.712-2.144-.857-2.144a24.837,24.837,0,0,0,0-4.722s1.573,0,1.858-1.29-.142-24.9-3.717-37.491-7.586-13.878-7.586-14.3c-3.149-16.742-15.839-47.261-15.839-47.261s14.234.133,22.535-1.187,29.758-1.778,37.536-1.116,45.7,2.121,56.9,2.383,23.829-15.625,24.354-29.859S918.6,674.146,918.475,673.879ZM773.818,643.094c0-.711-1.574-6.723-1.574-6.723s.858.574.858.427a42.806,42.806,0,0,0,2,5.3ZM770.385,826.11c-2.437-.142-7.871,3.721-7.871,3.721l5.58-19.322s2.006,3.011,1.859,5.871,3,5.727,2.864,5.865a5.26,5.26,0,0,0-2.433,3.865" transform="translate(-687.564 -478.933)" fill="#f4f9ff"/>
    </g>
    <g id="Group_30857" data-name="Group 30857" transform="translate(1065.407 508.021)" clip-path="url(#clip-path-13)">
      <path id="Path_46018" data-name="Path 46018" d="M1188.214,569.609s5.191-6.55,3.188-25.844c-.4-3.789-.99-10.21.319-16.4s-.273-11.032-.33-19.094-12.271-21.265-18.908-21.589c0,0-20.445-6.79-30.975.267,0,.142-9.027-.392-9.824,2.837s1.036,18.552,1.036,18.552-2.242,4.179-2.288,5.732.911,3.135.592,4.122-3.529,4.99-4.542,5.949-2.755,2.326-2.083,3.758c.4.721,3.46,2.783,3.46,2.783s.137,2.358-.933,3.086c-1.537,1.037,1.059,2.433,1.059,2.433s-1.742,1.512-.785,2.668c.546.578,1.969.476,1.81,1.463-.182.982-1.947,3.478-.159,5.51s5.6,1.992,14.059,2.935c1.537.467,3.631,1.33,4.713,7.164.41,1.88,4.622,8.076,4.622,8.076s-3.2,3.161-2.265,5.025a109.06,109.06,0,0,1-13.74,6.4c-8.151,3.028-32.6,7.866-32.6,7.866s-15.664-21.22-19.17-27.538c-1.343-2.442-4.667-2.232-4.667-2.232s-.877-1.739-1.286-2.46-3.233-.653-3.233-.653.455-11.442,1.07-12.98.376-3.1-.285-5.1-1.639-7.4-2.151-9.249a62.092,62.092,0,0,1-1.594-8.671c.171-1.591-2.641-.849-2.6,1.77.023,1.552.25,6.229.068,7.777a23.148,23.148,0,0,0,.706,5.251s-4.531-3.335-5.851-3.273c-1.343.063-5.487,3.944-5.919,4.642a10.558,10.558,0,0,0-.729,2.8s-2.22,1.357-1.981,2.922a14.326,14.326,0,0,0,2.049,4.785,12.042,12.042,0,0,0,2.333,1.493s.865,8.285,2.436,12.851a20.617,20.617,0,0,1-2.151.935c-.865.476.8,3.788.8,3.788s-4.018,1.979-4.36,2.615c-.876,1.614,1.5,6.973,4.223,10.721s15.926,22.353,16.837,25.066,10.04,15.55,16.723,19.268c2.789,1.356,11.122-3.784,25.488-6.639a70.881,70.881,0,0,0,4.223,21.037c-.137,0-36.28,2.668-38.818,2.6s-6.568,2.366-6.751,3.628c0,0-2.983.343-3.6,2.165a102.951,102.951,0,0,1-10.416-6.509c-1.662-1.459-4.975.849-4.975.849a4.974,4.974,0,0,0-3.7,1.031c-1.594,1.369-4.9,3.112-5.055,3.819a14.862,14.862,0,0,0-.193,2.113s-.6.689.2,2.832c.786,2.148,3.21,5.888,5.2,5.946.136,0,3.2,1.787,3.768,1.659s.341-1.971.341-1.971a.833.833,0,0,0,.729-.969c0,.138,8.105,3.478,12.636,3.317-.148.142.045,3.255,1.309,3.429s3.108.511,3.108.511-.615,6.914,2.9,7.292,20.9-4.229,22.881-4.313,25.408-.7,25.408-.7-1.1,12.718-2.539,13.1-17.417,5.42-18.134,5.678-2.049,2.627-2.049,2.627-80.358,17.134-85.617,18.117-11.179,5.211-12.934,7.706-7.24,11.108-7.9,14.484-.818,9.023-1.734,11.543-21.118,57.951-22.758,60.734c-1.623,2.783-6.587,8.3-7.329,9.552s1.441,3.854,1.441,3.854l-8.707,3.3a13.722,13.722,0,0,0-4.811.289c-2.846.626-20.416-3.256-20,2.414-.012.28,1.41,10.214,13.728,14.661,10.934,3.273,17.218,1.041,24.622-.877l2.423,4.456s-.338,1.961-8.92,5.683c0-.142-4.576,1.854-7.284,2.628s-11.806,2.636-11.183,5.625,6.809,9.521,19.788,10.588c6.487.462,13.825-4.425,16.427-6.047,2.583-1.623,7.127-2.348,10.654-2.1.142,0-1.778,5.452-1.516,6.168s3.224,1.365,3.682-.182,4.5-6.653,6.368-7.453,3.34-3.153,2.869-6.844c.008-.142,4-1.729,7.487-10.115s22.87-44.611,25.158-60.379c.66-3.8,2.96-15.189,4.531-15.567s19.967-1.565,33.047-4.029,42.313-6.324,42.313-6.324,1.059,2.437,5.316,2.134,31.635-1.649,38.876-2.726,24.361-11.69,23.86-49.741c-.114-21.5.467-34.431.74-44.459s7.32-34.439,7.217-45.895-8.515-31.963-8.515-31.963" transform="translate(-935.959 -483.426)" fill="#f4f9ff"/>
    </g>
    <g id="Group_30858" data-name="Group 30858" transform="translate(1371.166 494.97)" clip-path="url(#clip-path-14)">
      <path id="Path_46020" data-name="Path 46020" d="M1452.585,552.465s-8.674-9.209-9.335-14.078c0-.262,1.047-1.316,1.172-2.237a6.443,6.443,0,0,0,1.2,2.895c.125.129-.66-3.028,1.184-5.394s13.808-15.662,15.265-23.159a10.385,10.385,0,0,1,.649,2.895c0-.129,6.648-23.066-10.325-30.571a7.815,7.815,0,0,0-5.851-2.98,17.323,17.323,0,0,0-12.511-6.71c-8.151-.529-25.249-2.375-35.916,14.736.137.13,1.321-1.316,2.117-1.979.125-.129-6.591,9.214-5.669,19.611.137,0,.4-2.5.922-3.554,0,.13.66,2.762.922,3.42,0-.133-.262-5.522,3.028-8.155,0,0-.4,3.944-.922,4.6s.786,1.975.262,3.162a38.326,38.326,0,0,1-5.794,6.835c-1.309,1.053-3.278,2.374-2.891,4.74.4,1.445,4.349,2.236,4.349,3.423s-.8,3.153-1.321,3.42a1.753,1.753,0,0,0,.137,2.89c0,.134-1.047,1.584-.66,2.241s2.243.788,1.309,2.108-3.677,5.918.66,8.546c1.708,1.054,10.94,1.1,11.452,1.975,1.844,3.152.581,4.86,3.039,7.315,1.776,1.774,6,3.553,7.092,9.658a16.219,16.219,0,0,0-8.025,10.268c.262,0-12.9,12.241-14.219,27.636-.922,9.739,1.582,17.106,1.719,19.081a72.964,72.964,0,0,1-1.981,14.078c0,.129-20.263,8.951-27.23,13.029s-9.881,6.053-10.928,6.053-3.95,0-4.736-.4-11.054-6.443-12.636-6.973a17.3,17.3,0,0,1-5-3.291c-.922-.92-5.009-2.366-6.045-.525-1.059,1.845,1.309,4.478,3.279,5.528s4.349,2.895,4.087,3.424a11.172,11.172,0,0,1-4.474,3.024c.125-.133.387-2.895-.66-3.553s-3.29,2.762-4.087,3.42c-.125,0-3.017-2.366-3.017-2.366s.125-6.844-1.833-6.186c.114.133-1.457-3.424-2.9-2.9s-1.981,1.712-1.708,3.954a6.611,6.611,0,0,1-.535,3.686s-2.231-4.74-3.688-4.215c-1.434.529-.649,4.607-.649,6.581s3.278,4.6,5.134,6.711c1.833,2.1,9.608,2.236,9.608,2.236s2.482,3.816,5.783,4.082,22.107.13,24.873.525,7.1-2.765,13.023-3.948,17.622-3.949,17.622-3.949-7.365,20.8-8.549,22.513a4.036,4.036,0,0,0-.786,3.158s-2.5-1.054-3.29.663-2.493,5.522-1.582,6.968c.137,0,.137,1.449.137,1.449s-16.188,2.37-20.138,3.42-16.973.662-17.9.8,1.047,2.237,1.047,2.237-21.97,2.1-28.288,3.023-17.235,6.315-20.513,10.135c-3.3,3.81-11.327,28.553-13.034,34.6s-9.733,31.585-11.589,41.582-10.257,19.08-9.87,26.449c0,0-15.391,14.661-14.207,21.242.137,0-4.736,2.1-6.58,4.736-.125.263-6.318,1.054-8.424,3.553-.387.525-14.469.4-16.575,3.291s-2.231,6.443-1.047,8.284,10.849,3.811,33.5,4.082c5.737,0,24.122-4.619,24.122-4.619s3.506,2.713,5.362,2.713c2.732,0,19.113.817,16.392-6,0-.133,2.994-.36,2.994-2.464s3.153-8.324-.41-11.219c-.125-.134,19.227-43.071,20.8-60.174.125.129,11.452,20.523,16.176,25.525s11.463,23.95,15.266,24.209c.137-.125-6.568,2.107-5.783,6.052,0-.124-7.24,3.557-8.811,4.087-1.594.52-23.5,4.651-24.68,7.155s-3.1,7.052-.193,9.419,18.419,7.9,33.422,6.452a193.813,193.813,0,0,0,26.319-4.345s.786,1.712,3.415,1.446,19.99-.4,20.536-3.944A16.85,16.85,0,0,0,1383.9,845a23.38,23.38,0,0,0,1.673-8.24c3.825-.823,2.55-11.8,1.366-13.38-2.368-3.158-5.35-6.146-6.01-9.828s-3.347-8.822-9.391-18.823-8.834-18.948-16.859-29.345-11.976-15.59-11.976-15.59,60.413-3.749,66.595-5.331,20.263-4.207,28.55-29.207c.137.13,1.184,1.446,1.833,1.183.672-.266,3.165-13.157,3.3-20.788,0-.134,2.63,1.048,2.5-.921s-.262-33.031,6.568-46.184c6.853-13.163,14.355-33.56,16.188-46.847s5.931-25.791-4.075-35.53c-2.891-2.895-8.538-15.425-11.577-13.7" transform="translate(-1204.569 -471.89)" fill="#f4f9ff"/>
    </g>
    <g id="Group_30859" data-name="Group 30859" transform="translate(328.851 393.655)" clip-path="url(#clip-path-15)">
      <path id="Path_46022" data-name="Path 46022" d="M459.132,544.34c-.173.174-.867-2.072-3.46-.693s-3.291.693-5.367,1.565c0,.168-2.249-.347-3.984,0,0,.168-4.153-.7-4.322-.7s-3.98-4.327-3.98-4.847,2.072-2.766,3.634-3.807,4.6-6.217,2.952-7.537c-1.952-1.556-5.505,2.97-6.714,4.185s-3.9,3.948-5.288,4.3S425.554,544,424.341,544s-22.332-5.025-22.332-5.025-.342-2.765-4.322-4.326-11.6-2.419-11.6-2.419a10.708,10.708,0,0,0-3.464-1.908c.173,0,1.561-8.654,2.6-13.154s-.866-18.174-2.944-21.286-20.076-25.1-26.658-29.6c-.168.173-.516-6.23-1.036-6.928a42.955,42.955,0,0,0-3.686-3.184s3.46-.693,5.363.694,5.54,3.633,7.271,2.076,1.04-6.577,3.464-6.4,3.46-1.735,2.765-3.118-2.1-3.548-2.1-3.548a14.044,14.044,0,0,0,2.1.436c.52,0,.818-1.027.818-1.027a4.027,4.027,0,0,0,2.659.124,1.909,1.909,0,0,0,.632-2.445c-.219-.268.266-1.028.64-1.077,1.2-.147,4.082.272,3.909-1.636s-3.291-10.215-2.6-12.459,2.251-3.3,2.771-6.408,1.383-10.9.168-14.19c-.168,0,2.326,1.437,5.514-.156,1.961-.982,2.388-9.275-1.591-12.219s-12.4-11.869-25.382-9.956c0,.173-16.786-6.235-31.848,7.1s-17.484,33.057-18,45.7c0-.174,1.729,16.791,4.153,14.54,0-.178,3.469,2.251,5.025.173,0,0,2.6,3.291,3.981,1.037a8.9,8.9,0,0,0,1.729.52l-.347,2.77s-9,14.715-9.693,20.255,3.112,25.1,4.327,29.945c.173.178-4.154,26.489-3.461,32.892a24.027,24.027,0,0,0,3.286,10.21s-2.419,21.993-7.786,38.438c-.866,2.939,0,4.5,0,4.5a55.539,55.539,0,0,0,1.21,27.347c1.556,4.674,0,46.563-3.634,67.684-.52,3.286,9.867,2.419,9.867,2.419s-1.387,17.311-2.427,21.3-9.517,27-9.517,27-2.6-.863-2.6.178S300,754.254,299.142,762.56s0,24.062,1.383,36.005-1.9,20.078-7.271,27.869-4.331,13.847-1.729,16.621c0,.17,3.633,7.44,2.939,25.1-.174,1.556,9.347.868,9.173-.516s-2.77-15.061,3.634-16.8c1.04-.168,9.525,6.408,12.464,15.578.52,1.561,31.158,1.561,32.541.867s2.081-1.464,2.081-2.673a182.206,182.206,0,0,0,28.477.858c1.036-.17,1.729-4.322,1.036-5.016,0,.173,1.939-6.319-.867-7.444-2.89-1.157-29.2-12.376-32.751-25.566-4.166-15.487-.178-38.175.174-45.962s2.424-35.827,2.076-37.912a1.513,1.513,0,0,0-2.251-1.21s0-5.189.694-6.229,3.807-14.364,3.98-18,5.181-28.166,5.181-28.166,13.98.2,17.018-1.01c1.437-.578.863-36.405-1.214-51.467s-2.29-43.645-1.948-50.048c-.17-.168,3.121.7,3.121-.52s.173-8.826.173-8.826,1.726.346,1.556,1.044-.173,7.961,1.036,10.206,2.6,5.542,2.6,5.542-.52,3.459-.174,4.157a12.679,12.679,0,0,0-1.036,3.117s-2.944,1.552-1.908,4.149c.52.866,5.021-2.939,5.715-3.807,0,0,2.939-2.6,4.157-3.984.69-.863.69-3.282.69-3.282s1.9-1.04,2.076-2.258,1.04-6.057,1.04-6.057,1.9-1.036,2.251-1.9-1.04-3.634-1.735-4.843-2.419-2.6-4.153-6.923-12.811-9.179-12.811-9.179a60.814,60.814,0,0,1,.7-12.113c0-.351,11.939,1.9,14.363,2.771s6.928-3.464,6.928-3.464,13.158,1.21,16.271,3.112a33.175,33.175,0,0,0,9.525,3.781c1.557.168,13.265-.076,14.315-.112,2.072-.07,9.164-4.215,10.894-4.736s8.018-3.535,9.227-4.576S462.764,544.514,459.132,544.34Zm-133.8,282.668c-5.54-13.847-1.215-29.082-1.215-29.082,8.307,19.215,1.215,29.082,1.215,29.082" transform="translate(-288.945 -382.936)" fill="#f4f9ff"/>
    </g>
    <path id="Path_46024" data-name="Path 46024" d="M1296.68,640.832l15.778-27.384s3.609-4.558,3.87-4.46-2.208,5.435-2.208,5.435L1298.342,641.8l-1.662-.965" transform="translate(179.284 41.924)" fill="#f4f9ff"/>
  </g>
</svg>
